{
  "accessors": [
    {
      "bufferView": 0,
      "byteOffset": 0,
      "componentType": 5123,
      "count": 2124,
      "max": [
        2123.0
      ],
      "min": [
        0.0
      ],
      "name": "buffer-0-accessor-indices-buffer-0-mesh-0",
      "type": "SCALAR"
    },
    {
      "bufferView": 2,
      "byteOffset": 0,
      "componentType": 5126,
      "count": 2124,
      "max": [
        1.034201979637146,
        0.487650990486145,
        1.034201979637146
      ],
      "min": [
        -1.034201979637146,
        -0.7983760237693787,
        -1.034201979637146
      ],
      "name": "buffer-0-accessor-position-buffer-0-mesh-0",
      "type": "VEC3"
    },
    {
      "bufferView": 2,
      "byteOffset": 25488,
      "componentType": 5126,
      "count": 2124,
      "max": [
        0.9909577369689941,
        0.9940553903579712,
        0.9909577369689941
      ],
      "min": [
        -0.9853594899177551,
        -0.9995012283325195,
        -0.9909577369689941
      ],
      "name": "buffer-0-accessor-normal-buffer-0-mesh-0",
      "type": "VEC3"
    },
    {
      "bufferView": 1,
      "byteOffset": 0,
      "componentType": 5126,
      "count": 2124,
      "max": [
        1.0,
        0.0
      ],
      "min": [
        0.0,
        -0.875
      ],
      "name": "buffer-0-accessor-texcoord-buffer-0-mesh-0",
      "type": "VEC2"
    },
    {
      "bufferView": 3,
      "byteOffset": 0,
      "componentType": 5126,
      "count": 0,
      "max": [
        0.0,
        0.0,
        0.0,
        0.0
      ],
      "min": [
        0.0,
        0.0,
        0.0,
        0.0
      ],
      "name": "buffer-0-accessor-color-buffer-0-mesh-0",
      "type": "VEC4"
    },
    {
      "bufferView": 0,
      "byteOffset": 4248,
      "componentType": 5123,
      "count": 612,
      "max": [
        611.0
      ],
      "min": [
        0.0
      ],
      "name": "buffer-0-accessor-indices-buffer-0-mesh-0",
      "type": "SCALAR"
    },
    {
      "bufferView": 2,
      "byteOffset": 50976,
      "componentType": 5126,
      "count": 612,
      "max": [
        0.12352599948644638,
        0.9777600169181824,
        0.12520800530910492
      ],
      "min": [
        -0.12352599948644638,
        0.0,
        -0.12352599948644638
      ],
      "name": "buffer-0-accessor-position-buffer-0-mesh-0",
      "type": "VEC3"
    },
    {
      "bufferView": 2,
      "byteOffset": 58320,
      "componentType": 5126,
      "count": 612,
      "max": [
        0.965918242931366,
        0.9618485569953918,
        0.9661163091659546
      ],
      "min": [
        -0.9659118056297302,
        -0.2995656728744507,
        -0.9655518531799316
      ],
      "name": "buffer-0-accessor-normal-buffer-0-mesh-0",
      "type": "VEC3"
    },
    {
      "bufferView": 1,
      "byteOffset": 16992,
      "componentType": 5126,
      "count": 612,
      "max": [
        1.0,
        0.0
      ],
      "min": [
        0.0,
        -1.0
      ],
      "name": "buffer-0-accessor-texcoord-buffer-0-mesh-0",
      "type": "VEC2"
    },
    {
      "bufferView": 3,
      "byteOffset": 0,
      "componentType": 5126,
      "count": 0,
      "max": [
        0.0,
        0.0,
        0.0,
        0.0
      ],
      "min": [
        0.0,
        0.0,
        0.0,
        0.0
      ],
      "name": "buffer-0-accessor-color-buffer-0-mesh-0",
      "type": "VEC4"
    }
  ],
  "asset": {
    "generator": "Obj2GltfConverter",
    "version": "2.0"
  },
  "bufferViews": [
    {
      "buffer": 0,
      "byteLength": 5472,
      "byteOffset": 0,
      "byteStride": 0,
      "name": "buffer-0-bufferview-ushort",
      "target": 34963
    },
    {
      "buffer": 0,
      "byteLength": 21888,
      "byteOffset": 5472,
      "byteStride": 8,
      "name": "buffer-0-bufferview-vec2",
      "target": 34962
    },
    {
      "buffer": 0,
      "byteLength": 65664,
      "byteOffset": 27360,
      "byteStride": 12,
      "name": "buffer-0-bufferview-vec3",
      "target": 34962
    },
    {
      "buffer": 0,
      "byteLength": 0,
      "byteOffset": 93024,
      "byteStride": 16,
      "name": "buffer-0-bufferview-vec4",
      "target": 34962
    }
  ],
  "buffers": [
    {
      "byteLength": 93024,
      "name": "buffer-0",
      "uri": "pumpkin.bin"
    }
  ],
  "materials": [
    {
      "alphaMode": "OPAQUE",
      "doubleSided": true,
      "name": "lambert2SG",
      "pbrMetallicRoughness": {
        "baseColorFactor": [
          0.86,
          0.12,
          0.0,
          1.0
        ],
        "metallicFactor": 0.0,
        "roughnessFactor": 0.9699476628648295
      }
    },
    {
      "alphaMode": "OPAQUE",
      "doubleSided": true,
      "name": "lambert3SG",
      "pbrMetallicRoughness": {
        "baseColorFactor": [
          0.11,
          0.14,
          0.07,
          1.0
        ],
        "metallicFactor": 0.0,
        "roughnessFactor": 0.9699476628648295
      }
    }
  ],
  "meshes": [
    {
      "name": "buffer-0-mesh-0",
      "primitives": [
        {
          "attributes": {
            "POSITION": 1,
            "NORMAL": 2,
            "TEXCOORD_0": 3
          },
          "indices": 0,
          "material": 0,
          "mode": 4
        },
        {
          "attributes": {
            "POSITION": 6,
            "NORMAL": 7,
            "TEXCOORD_0": 8
          },
          "indices": 5,
          "material": 1,
          "mode": 4
        }
      ]
    }
  ],
  "nodes": [
    {
      "mesh": 0,
      "name": "node-0"
    }
  ],
  "scenes": [
    {
      "name": "scene-0",
      "nodes": [
        0
      ]
    }
  ]
}