{
    "asset" : {
        "generator" : "Khronos glTF Blender I/O v1.2.75",
        "version" : "2.0"
    },
    "scene" : 0,
    "scenes" : [
        {
            "name" : "Scene",
            "nodes" : [
                0,
                1,
                3,
                4,
                5,
                6,
                7
            ]
        }
    ],
    "nodes" : [
        {
            "name" : "Natures_Cube_Tree.obj"
        },
        {
            "name" : "Props_Bench_1.obj"
        },
        {
            "mesh" : 0,
            "name" : "Building Sky_small_color01_Cube.028",
            "rotation" : [
                0,
                -0.7071068286895752,
                0,
                0.7071068286895752
            ],
            "translation" : [
                -5,
                0,
                -3.586958885192871
            ]
        },
        {
            "children" : [
                2
            ],
            "name" : "Building_Sky_small_color01.obj"
        },
        {
            "name" : "Building_Bar.obj"
        },
        {
            "name" : "Building_Coffee_Shop.obj"
        },
        {
            "name" : "Building_Residential_color01.obj"
        },
        {
            "name" : "Road_Concrete_Tile.obj"
        }
    ],
    "materials" : [
        {
            "emissiveFactor" : [
                0,
                0,
                0
            ],
            "name" : "Building Sky_small_color01",
            "pbrMetallicRoughness" : {
                "baseColorTexture" : {
                    "index" : 0,
                    "texCoord" : 0
                },
                "metallicFactor" : 0.5,
                "roughnessFactor" : 0.5
            }
        },
        {
            "emissiveFactor" : [
                0,
                0,
                0
            ],
            "name" : "Natures.004",
            "pbrMetallicRoughness" : {
                "baseColorTexture" : {
                    "index" : 1,
                    "texCoord" : 0
                },
                "metallicFactor" : 0.5,
                "roughnessFactor" : 0.5
            }
        },
        {
            "emissiveFactor" : [
                0,
                0,
                0
            ],
            "name" : "Props_Props_01.002",
            "pbrMetallicRoughness" : {
                "baseColorTexture" : {
                    "index" : 2,
                    "texCoord" : 0
                },
                "metallicFactor" : 0.5,
                "roughnessFactor" : 0.5
            }
        },
        {
            "emissiveFactor" : [
                0,
                0,
                0
            ],
            "name" : "Building_Bar",
            "pbrMetallicRoughness" : {
                "baseColorTexture" : {
                    "index" : 3,
                    "texCoord" : 0
                },
                "metallicFactor" : 0.5,
                "roughnessFactor" : 0.5
            }
        },
        {
            "emissiveFactor" : [
                0,
                0,
                0
            ],
            "name" : "Building_Coffee Shop",
            "pbrMetallicRoughness" : {
                "baseColorTexture" : {
                    "index" : 4,
                    "texCoord" : 0
                },
                "metallicFactor" : 0.5,
                "roughnessFactor" : 0.5
            }
        },
        {
            "emissiveFactor" : [
                0,
                0,
                0
            ],
            "name" : "Building_Residential_color01",
            "pbrMetallicRoughness" : {
                "baseColorTexture" : {
                    "index" : 5,
                    "texCoord" : 0
                },
                "metallicFactor" : 0.5,
                "roughnessFactor" : 0.5
            }
        },
        {
            "emissiveFactor" : [
                0,
                0,
                0
            ],
            "name" : "DefaultMaterial",
            "pbrMetallicRoughness" : {
                "baseColorTexture" : {
                    "index" : 6,
                    "texCoord" : 0
                },
                "metallicFactor" : 0.5,
                "roughnessFactor" : 0.5
            }
        }
    ],
    "meshes" : [
        {
            "name" : "Mesh_4",
            "primitives" : [
                {
                    "attributes" : {
                        "POSITION" : 0,
                        "NORMAL" : 1,
                        "TEXCOORD_0" : 2
                    },
                    "indices" : 3,
                    "material" : 0
                },
                {
                    "attributes" : {
                        "POSITION" : 4,
                        "NORMAL" : 5,
                        "TEXCOORD_0" : 6
                    },
                    "indices" : 7,
                    "material" : 1
                },
                {
                    "attributes" : {
                        "POSITION" : 8,
                        "NORMAL" : 9,
                        "TEXCOORD_0" : 10
                    },
                    "indices" : 11,
                    "material" : 2
                },
                {
                    "attributes" : {
                        "POSITION" : 12,
                        "NORMAL" : 13,
                        "TEXCOORD_0" : 14
                    },
                    "indices" : 15,
                    "material" : 3
                },
                {
                    "attributes" : {
                        "POSITION" : 16,
                        "NORMAL" : 17,
                        "TEXCOORD_0" : 18
                    },
                    "indices" : 19,
                    "material" : 4
                },
                {
                    "attributes" : {
                        "POSITION" : 20,
                        "NORMAL" : 21,
                        "TEXCOORD_0" : 22
                    },
                    "indices" : 23,
                    "material" : 5
                },
                {
                    "attributes" : {
                        "POSITION" : 24,
                        "NORMAL" : 25,
                        "TEXCOORD_0" : 26
                    },
                    "indices" : 27,
                    "material" : 6
                }
            ]
        }
    ],
    "textures" : [
        {
            "source" : 0
        },
        {
            "source" : 1
        },
        {
            "source" : 2
        },
        {
            "source" : 3
        },
        {
            "source" : 4
        },
        {
            "source" : 5
        },
        {
            "source" : 6
        }
    ],
    "images" : [
        {
            "bufferView" : 4,
            "mimeType" : "image/png",
            "name" : "Image_2"
        },
        {
            "bufferView" : 9,
            "mimeType" : "image/png",
            "name" : "Image_0"
        },
        {
            "bufferView" : 14,
            "mimeType" : "image/png",
            "name" : "Image_1"
        },
        {
            "bufferView" : 19,
            "mimeType" : "image/png",
            "name" : "Image_3"
        },
        {
            "bufferView" : 24,
            "mimeType" : "image/png",
            "name" : "Image_4"
        },
        {
            "bufferView" : 29,
            "mimeType" : "image/png",
            "name" : "Image_5"
        },
        {
            "bufferView" : 34,
            "mimeType" : "image/png",
            "name" : "Image_6"
        }
    ],
    "accessors" : [
        {
            "bufferView" : 0,
            "componentType" : 5126,
            "count" : 921,
            "max" : [
                6.499989986419678,
                16.92889976501465,
                7.008359909057617
            ],
            "min" : [
                -6.500010013580322,
                0,
                -6.057089805603027
            ],
            "type" : "VEC3"
        },
        {
            "bufferView" : 1,
            "componentType" : 5126,
            "count" : 921,
            "type" : "VEC3"
        },
        {
            "bufferView" : 2,
            "componentType" : 5126,
            "count" : 921,
            "type" : "VEC2"
        },
        {
            "bufferView" : 3,
            "componentType" : 5123,
            "count" : 921,
            "type" : "SCALAR"
        },
        {
            "bufferView" : 5,
            "componentType" : 5126,
            "count" : 2196,
            "max" : [
                27.88178253173828,
                4.028210163116455,
                -9.196003913879395
            ],
            "min" : [
                -3.9978935718536377,
                0.0005750000127591193,
                -27.317676544189453
            ],
            "type" : "VEC3"
        },
        {
            "bufferView" : 6,
            "componentType" : 5126,
            "count" : 2196,
            "type" : "VEC3"
        },
        {
            "bufferView" : 7,
            "componentType" : 5126,
            "count" : 2196,
            "type" : "VEC2"
        },
        {
            "bufferView" : 8,
            "componentType" : 5123,
            "count" : 2196,
            "type" : "SCALAR"
        },
        {
            "bufferView" : 10,
            "componentType" : 5126,
            "count" : 180,
            "max" : [
                14.18075180053711,
                0.924871027469635,
                -21.22441864013672
            ],
            "min" : [
                10.18075180053711,
                -0.0006399999838322401,
                -22.342544555664062
            ],
            "type" : "VEC3"
        },
        {
            "bufferView" : 11,
            "componentType" : 5126,
            "count" : 180,
            "type" : "VEC3"
        },
        {
            "bufferView" : 12,
            "componentType" : 5126,
            "count" : 180,
            "type" : "VEC2"
        },
        {
            "bufferView" : 13,
            "componentType" : 5123,
            "count" : 180,
            "type" : "SCALAR"
        },
        {
            "bufferView" : 15,
            "componentType" : 5126,
            "count" : 612,
            "max" : [
                0.7433557510375977,
                10.41100025177002,
                -28.865800857543945
            ],
            "min" : [
                -6.614535808563232,
                -1.2000000424450263e-05,
                -36.27327346801758
            ],
            "type" : "VEC3"
        },
        {
            "bufferView" : 16,
            "componentType" : 5126,
            "count" : 612,
            "type" : "VEC3"
        },
        {
            "bufferView" : 17,
            "componentType" : 5126,
            "count" : 612,
            "type" : "VEC2"
        },
        {
            "bufferView" : 18,
            "componentType" : 5123,
            "count" : 612,
            "type" : "SCALAR"
        },
        {
            "bufferView" : 20,
            "componentType" : 5126,
            "count" : 972,
            "max" : [
                29.24557113647461,
                7.000899791717529,
                4.360318183898926
            ],
            "min" : [
                16.787763595581055,
                -0.0008290000259876251,
                -15.015002250671387
            ],
            "type" : "VEC3"
        },
        {
            "bufferView" : 21,
            "componentType" : 5126,
            "count" : 972,
            "type" : "VEC3"
        },
        {
            "bufferView" : 22,
            "componentType" : 5126,
            "count" : 972,
            "type" : "VEC2"
        },
        {
            "bufferView" : 23,
            "componentType" : 5123,
            "count" : 972,
            "type" : "SCALAR"
        },
        {
            "bufferView" : 25,
            "componentType" : 5126,
            "count" : 3624,
            "max" : [
                21.701534271240234,
                19.239700317382812,
                -24.03984832763672
            ],
            "min" : [
                5.472102165222168,
                0,
                -36.70475769042969
            ],
            "type" : "VEC3"
        },
        {
            "bufferView" : 26,
            "componentType" : 5126,
            "count" : 3624,
            "type" : "VEC3"
        },
        {
            "bufferView" : 27,
            "componentType" : 5126,
            "count" : 3624,
            "type" : "VEC2"
        },
        {
            "bufferView" : 28,
            "componentType" : 5123,
            "count" : 3624,
            "type" : "SCALAR"
        },
        {
            "bufferView" : 30,
            "componentType" : 5126,
            "count" : 6,
            "max" : [
                33.58695602416992,
                0,
                5
            ],
            "min" : [
                -6.413043975830078,
                0,
                -35
            ],
            "type" : "VEC3"
        },
        {
            "bufferView" : 31,
            "componentType" : 5126,
            "count" : 6,
            "type" : "VEC3"
        },
        {
            "bufferView" : 32,
            "componentType" : 5126,
            "count" : 6,
            "type" : "VEC2"
        },
        {
            "bufferView" : 33,
            "componentType" : 5123,
            "count" : 6,
            "type" : "SCALAR"
        }
    ],
    "bufferViews" : [
        {
            "buffer" : 0,
            "byteLength" : 11052,
            "byteOffset" : 0
        },
        {
            "buffer" : 0,
            "byteLength" : 11052,
            "byteOffset" : 11052
        },
        {
            "buffer" : 0,
            "byteLength" : 7368,
            "byteOffset" : 22104
        },
        {
            "buffer" : 0,
            "byteLength" : 1842,
            "byteOffset" : 29472
        },
        {
            "buffer" : 0,
            "byteLength" : 9602,
            "byteOffset" : 31316
        },
        {
            "buffer" : 0,
            "byteLength" : 26352,
            "byteOffset" : 40920
        },
        {
            "buffer" : 0,
            "byteLength" : 26352,
            "byteOffset" : 67272
        },
        {
            "buffer" : 0,
            "byteLength" : 17568,
            "byteOffset" : 93624
        },
        {
            "buffer" : 0,
            "byteLength" : 4392,
            "byteOffset" : 111192
        },
        {
            "buffer" : 0,
            "byteLength" : 10800,
            "byteOffset" : 115584
        },
        {
            "buffer" : 0,
            "byteLength" : 2160,
            "byteOffset" : 126384
        },
        {
            "buffer" : 0,
            "byteLength" : 2160,
            "byteOffset" : 128544
        },
        {
            "buffer" : 0,
            "byteLength" : 1440,
            "byteOffset" : 130704
        },
        {
            "buffer" : 0,
            "byteLength" : 360,
            "byteOffset" : 132144
        },
        {
            "buffer" : 0,
            "byteLength" : 8078,
            "byteOffset" : 132504
        },
        {
            "buffer" : 0,
            "byteLength" : 7344,
            "byteOffset" : 140584
        },
        {
            "buffer" : 0,
            "byteLength" : 7344,
            "byteOffset" : 147928
        },
        {
            "buffer" : 0,
            "byteLength" : 4896,
            "byteOffset" : 155272
        },
        {
            "buffer" : 0,
            "byteLength" : 1224,
            "byteOffset" : 160168
        },
        {
            "buffer" : 0,
            "byteLength" : 11225,
            "byteOffset" : 161392
        },
        {
            "buffer" : 0,
            "byteLength" : 11664,
            "byteOffset" : 172620
        },
        {
            "buffer" : 0,
            "byteLength" : 11664,
            "byteOffset" : 184284
        },
        {
            "buffer" : 0,
            "byteLength" : 7776,
            "byteOffset" : 195948
        },
        {
            "buffer" : 0,
            "byteLength" : 1944,
            "byteOffset" : 203724
        },
        {
            "buffer" : 0,
            "byteLength" : 15024,
            "byteOffset" : 205668
        },
        {
            "buffer" : 0,
            "byteLength" : 43488,
            "byteOffset" : 220692
        },
        {
            "buffer" : 0,
            "byteLength" : 43488,
            "byteOffset" : 264180
        },
        {
            "buffer" : 0,
            "byteLength" : 28992,
            "byteOffset" : 307668
        },
        {
            "buffer" : 0,
            "byteLength" : 7248,
            "byteOffset" : 336660
        },
        {
            "buffer" : 0,
            "byteLength" : 6944,
            "byteOffset" : 343908
        },
        {
            "buffer" : 0,
            "byteLength" : 72,
            "byteOffset" : 350852
        },
        {
            "buffer" : 0,
            "byteLength" : 72,
            "byteOffset" : 350924
        },
        {
            "buffer" : 0,
            "byteLength" : 48,
            "byteOffset" : 350996
        },
        {
            "buffer" : 0,
            "byteLength" : 12,
            "byteOffset" : 351044
        },
        {
            "buffer" : 0,
            "byteLength" : 183061,
            "byteOffset" : 351056
        }
    ],
    "buffers" : [
        {
            "byteLength" : 534120,
            "uri" : "data:application/octet-stream;base64,"
        }
    ]
}
