{
  "asset": {
    "version": "2.0",
    "generator": "THREE.GLTFExporter"
  },
  "scenes": [
    {
      "nodes": [
        1,
        3,
        5,
        7,
        9,
        11,
        13,
        15,
        17
      ],
      "name": "Scene"
    }
  ],
  "scene": 0,
  "nodes": [
    {
      "matrix": [
        -1,
        0,
        0,
        0,
        0,
        1,
        0,
        0,
        0,
        0,
        -1,
        0,
        20,
        0.05,
        10,
        1
      ],
      "name": "Road Lane Bus Stop_Plane.015",
      "mesh": 0
    },
    {
      "name": "Road_Lane_Bus_Stop.obj",
      "children": [
        0
      ]
    },
    {
      "matrix": [
        1,
        0,
        0,
        0,
        0,
        1,
        0,
        0,
        0,
        0,
        2,
        0,
        0,
        0,
        10,
        1
      ],
      "name": "Road Concrete Tile_Plane.010",
      "mesh": 1
    },
    {
      "name": "Road_Concrete_Tile.obj",
      "children": [
        2
      ]
    },
    {
      "matrix": [
        1,
        0,
        0,
        0,
        0,
        1,
        0,
        0,
        0,
        0,
        1,
        0,
        10.05992,
        0,
        10.066189,
        1
      ],
      "name": "Vehicle_Bus_Cube.043",
      "extras": {
        "name": "Bus",
        "loot": [
          "toolbox",
          "phone",
          "hammer",
          "chocolate"
        ]
      },
      "mesh": 2
    },
    {
      "name": "Vehicle_Bus.obj",
      "children": [
        4
      ]
    },
    {
      "matrix": [
        2.220446049250313e-16,
        0,
        -1,
        0,
        0,
        1,
        0,
        0,
        1,
        0,
        2.220446049250313e-16,
        0,
        -5,
        0.05,
        10,
        1
      ],
      "name": "Building_Auto Service_Cube.001",
      "extras": {
        "name": "Bus Station",
        "ip": "217.192.196.177",
        "ports": [
          877,
          393
        ],
        "loot": [
          "typewriter",
          "toolbox",
          "solar_battery",
          "mop",
          "magnet",
          "ladder",
          "hatchet",
          "drill"
        ]
      },
      "mesh": 3
    },
    {
      "name": "Building_Auto_Service.obj",
      "children": [
        6
      ]
    },
    {
      "matrix": [
        -1,
        0,
        0,
        0,
        0,
        1,
        0,
        0,
        0,
        0,
        -1,
        0,
        11.575144,
        0,
        -8.647231,
        1
      ],
      "name": "Props_Traffic Sign_stop_Cube.032",
      "mesh": 4
    },
    {
      "name": "Props_Traffic_Sign_stop.obj",
      "children": [
        8
      ]
    },
    {
      "matrix": [
        2.220446049250313e-16,
        0,
        -1,
        0,
        0,
        1,
        0,
        0,
        1,
        0,
        2.220446049250313e-16,
        0,
        -3.413813,
        0,
        24.628184,
        1
      ],
      "name": "Vehicle_Bus_Cube.043",
      "extras": {
        "name": "Bus",
        "loot": [
          "toolbox",
          "phone",
          "hammer",
          "chocolate"
        ]
      },
      "mesh": 5
    },
    {
      "name": "Vehicle_Bus.obj",
      "children": [
        10
      ]
    },
    {
      "matrix": [
        1,
        0,
        0,
        0,
        0,
        1,
        0,
        0,
        0,
        0,
        1,
        0,
        11.381574,
        0,
        28.427125,
        1
      ],
      "name": "Props_Hydrant_Cylinder.005",
      "mesh": 6
    },
    {
      "name": "Props_Hydrant.obj",
      "children": [
        12
      ]
    },
    {
      "matrix": [
        1,
        0,
        0,
        0,
        0,
        1,
        0,
        0,
        0,
        0,
        1,
        0,
        -4.496459,
        0,
        -4.71435,
        1
      ],
      "name": "Props_Roof Antenna_Cylinder.021",
      "mesh": 7
    },
    {
      "name": "Props_Roof_Antenna.obj",
      "children": [
        14
      ]
    },
    {
      "matrix": [
        1,
        0,
        0,
        0,
        0,
        1,
        0,
        0,
        0,
        0,
        5.75,
        0,
        29.5,
        0,
        10,
        1
      ],
      "name": "Natures_Grass Bar_Cube.020",
      "mesh": 8
    },
    {
      "name": "Natures_Grass_Bar.obj",
      "children": [
        16
      ]
    }
  ],
  "bufferViews": [
    {
      "buffer": 0,
      "byteOffset": 0,
      "byteLength": 7092,
      "target": 34962,
      "byteStride": 12
    },
    {
      "buffer": 0,
      "byteOffset": 7092,
      "byteLength": 7092,
      "target": 34962,
      "byteStride": 12
    },
    {
      "buffer": 0,
      "byteOffset": 14184,
      "byteLength": 4728,
      "target": 34962,
      "byteStride": 8
    },
    {
      "buffer": 0,
      "byteOffset": 18912,
      "byteLength": 72,
      "target": 34962,
      "byteStride": 12
    },
    {
      "buffer": 0,
      "byteOffset": 18984,
      "byteLength": 72,
      "target": 34962,
      "byteStride": 12
    },
    {
      "buffer": 0,
      "byteOffset": 19056,
      "byteLength": 48,
      "target": 34962,
      "byteStride": 8
    },
    {
      "buffer": 0,
      "byteOffset": 19104,
      "byteLength": 27360,
      "target": 34962,
      "byteStride": 12
    },
    {
      "buffer": 0,
      "byteOffset": 46464,
      "byteLength": 27360,
      "target": 34962,
      "byteStride": 12
    },
    {
      "buffer": 0,
      "byteOffset": 73824,
      "byteLength": 18240,
      "target": 34962,
      "byteStride": 8
    },
    {
      "buffer": 0,
      "byteOffset": 92064,
      "byteLength": 6984,
      "target": 34962,
      "byteStride": 12
    },
    {
      "buffer": 0,
      "byteOffset": 99048,
      "byteLength": 6984,
      "target": 34962,
      "byteStride": 12
    },
    {
      "buffer": 0,
      "byteOffset": 106032,
      "byteLength": 4656,
      "target": 34962,
      "byteStride": 8
    },
    {
      "buffer": 0,
      "byteOffset": 110688,
      "byteLength": 1152,
      "target": 34962,
      "byteStride": 12
    },
    {
      "buffer": 0,
      "byteOffset": 111840,
      "byteLength": 1152,
      "target": 34962,
      "byteStride": 12
    },
    {
      "buffer": 0,
      "byteOffset": 112992,
      "byteLength": 768,
      "target": 34962,
      "byteStride": 8
    },
    {
      "buffer": 0,
      "byteOffset": 113760,
      "byteLength": 27360,
      "target": 34962,
      "byteStride": 12
    },
    {
      "buffer": 0,
      "byteOffset": 141120,
      "byteLength": 27360,
      "target": 34962,
      "byteStride": 12
    },
    {
      "buffer": 0,
      "byteOffset": 168480,
      "byteLength": 18240,
      "target": 34962,
      "byteStride": 8
    },
    {
      "buffer": 0,
      "byteOffset": 186720,
      "byteLength": 8208,
      "target": 34962,
      "byteStride": 12
    },
    {
      "buffer": 0,
      "byteOffset": 194928,
      "byteLength": 8208,
      "target": 34962,
      "byteStride": 12
    },
    {
      "buffer": 0,
      "byteOffset": 203136,
      "byteLength": 5472,
      "target": 34962,
      "byteStride": 8
    },
    {
      "buffer": 0,
      "byteOffset": 208608,
      "byteLength": 10728,
      "target": 34962,
      "byteStride": 12
    },
    {
      "buffer": 0,
      "byteOffset": 219336,
      "byteLength": 10728,
      "target": 34962,
      "byteStride": 12
    },
    {
      "buffer": 0,
      "byteOffset": 230064,
      "byteLength": 7152,
      "target": 34962,
      "byteStride": 8
    },
    {
      "buffer": 0,
      "byteOffset": 237216,
      "byteLength": 432,
      "target": 34962,
      "byteStride": 12
    },
    {
      "buffer": 0,
      "byteOffset": 237648,
      "byteLength": 432,
      "target": 34962,
      "byteStride": 12
    },
    {
      "buffer": 0,
      "byteOffset": 238080,
      "byteLength": 288,
      "target": 34962,
      "byteStride": 8
    }
  ],
  "buffers": [
    {
      "byteLength": 238368,
      "uri": "data:application/octet-stream;base64,"
    }
  ],
  "accessors": [
    {
      "bufferView": 0,
      "componentType": 5126,
      "count": 591,
      "max": [
        17.002399444580078,
        0.20000100135803223,
        20
      ],
      "min": [
        -10,
        -9.999999974752427e-7,
        -20
      ],
      "type": "VEC3"
    },
    {
      "bufferView": 1,
      "componentType": 5126,
      "count": 591,
      "max": [
        1,
        1,
        1
      ],
      "min": [
        -1,
        -1,
        -1
      ],
      "type": "VEC3"
    },
    {
      "bufferView": 2,
      "componentType": 5126,
      "count": 591,
      "max": [
        0.5808339715003967,
        0.9216009974479675
      ],
      "min": [
        0.220768004655838,
        0.44399601221084595
      ],
      "type": "VEC2"
    },
    {
      "bufferView": 3,
      "componentType": 5126,
      "count": 6,
      "max": [
        10,
        0,
        10
      ],
      "min": [
        -10,
        0,
        -10
      ],
      "type": "VEC3"
    },
    {
      "bufferView": 4,
      "componentType": 5126,
      "count": 6,
      "max": [
        0,
        1,
        0
      ],
      "min": [
        0,
        1,
        0
      ],
      "type": "VEC3"
    },
    {
      "bufferView": 5,
      "componentType": 5126,
      "count": 6,
      "max": [
        0.09403999894857407,
        0.48469001054763794
      ],
      "min": [
        0.04405000060796738,
        0.43470001220703125
      ],
      "type": "VEC2"
    },
    {
      "bufferView": 6,
      "componentType": 5126,
      "count": 2280,
      "max": [
        1.8487000465393066,
        3.573509931564331,
        4.601069927215576
      ],
      "min": [
        -1.845900058746338,
        -0.0050559998489916325,
        -4.701429843902588
      ],
      "type": "VEC3"
    },
    {
      "bufferView": 7,
      "componentType": 5126,
      "count": 2280,
      "max": [
        1,
        1,
        1
      ],
      "min": [
        -1,
        -1,
        -1
      ],
      "type": "VEC3"
    },
    {
      "bufferView": 8,
      "componentType": 5126,
      "count": 2280,
      "max": [
        0.964801013469696,
        0.9153460264205933
      ],
      "min": [
        0.01496999990195036,
        0.03646799921989441
      ],
      "type": "VEC2"
    },
    {
      "bufferView": 9,
      "componentType": 5126,
      "count": 582,
      "max": [
        9.356829643249512,
        7.000030040740967,
        4.180930137634277
      ],
      "min": [
        -8.914679527282715,
        0.00048099999548867345,
        -4.08273983001709
      ],
      "type": "VEC3"
    },
    {
      "bufferView": 10,
      "componentType": 5126,
      "count": 582,
      "max": [
        1,
        1,
        1
      ],
      "min": [
        -1,
        -1,
        -1
      ],
      "type": "VEC3"
    },
    {
      "bufferView": 11,
      "componentType": 5126,
      "count": 582,
      "max": [
        0.9893199801445007,
        0.9621549844741821
      ],
      "min": [
        0,
        0
      ],
      "type": "VEC2"
    },
    {
      "bufferView": 12,
      "componentType": 5126,
      "count": 96,
      "max": [
        0.3619050085544586,
        2.4327399730682373,
        0.035165999084711075
      ],
      "min": [
        -0.3619050085544586,
        0.00005400000009103678,
        -0.035165999084711075
      ],
      "type": "VEC3"
    },
    {
      "bufferView": 13,
      "componentType": 5126,
      "count": 96,
      "max": [
        1,
        1,
        1
      ],
      "min": [
        -1,
        -1,
        -1
      ],
      "type": "VEC3"
    },
    {
      "bufferView": 14,
      "componentType": 5126,
      "count": 96,
      "max": [
        0.5249999761581421,
        0.5249999761581421
      ],
      "min": [
        0.2950040102005005,
        0.04743900150060654
      ],
      "type": "VEC2"
    },
    {
      "bufferView": 15,
      "componentType": 5126,
      "count": 2280,
      "max": [
        1.8487000465393066,
        3.573509931564331,
        4.601069927215576
      ],
      "min": [
        -1.845900058746338,
        -0.0050559998489916325,
        -4.701429843902588
      ],
      "type": "VEC3"
    },
    {
      "bufferView": 16,
      "componentType": 5126,
      "count": 2280,
      "max": [
        1,
        1,
        1
      ],
      "min": [
        -1,
        -1,
        -1
      ],
      "type": "VEC3"
    },
    {
      "bufferView": 17,
      "componentType": 5126,
      "count": 2280,
      "max": [
        0.964801013469696,
        0.9153460264205933
      ],
      "min": [
        0.01496999990195036,
        0.03646799921989441
      ],
      "type": "VEC2"
    },
    {
      "bufferView": 18,
      "componentType": 5126,
      "count": 684,
      "max": [
        0.2175000011920929,
        1.0203800201416016,
        0.2175000011920929
      ],
      "min": [
        -0.2175000011920929,
        9.999999974752427e-7,
        -0.2175000011920929
      ],
      "type": "VEC3"
    },
    {
      "bufferView": 19,
      "componentType": 5126,
      "count": 684,
      "max": [
        1,
        1,
        1
      ],
      "min": [
        -1,
        -1,
        -1
      ],
      "type": "VEC3"
    },
    {
      "bufferView": 20,
      "componentType": 5126,
      "count": 684,
      "max": [
        0.7777590155601501,
        0.10700800269842148
      ],
      "min": [
        0.7277590036392212,
        0.05700799822807312
      ],
      "type": "VEC2"
    },
    {
      "bufferView": 21,
      "componentType": 5126,
      "count": 894,
      "max": [
        0.7117440104484558,
        8.100069999694824,
        0.6915180087089539
      ],
      "min": [
        -0.7143099904060364,
        -0.008074999786913395,
        -0.7341189980506897
      ],
      "type": "VEC3"
    },
    {
      "bufferView": 22,
      "componentType": 5126,
      "count": 894,
      "max": [
        1,
        1,
        1
      ],
      "min": [
        -1,
        -1,
        -1
      ],
      "type": "VEC3"
    },
    {
      "bufferView": 23,
      "componentType": 5126,
      "count": 894,
      "max": [
        0.7333490252494812,
        0.5
      ],
      "min": [
        0.5,
        0.34752601385116577
      ],
      "type": "VEC2"
    },
    {
      "bufferView": 24,
      "componentType": 5126,
      "count": 36,
      "max": [
        0.5,
        0.8000010251998901,
        3.5
      ],
      "min": [
        -0.5,
        -9.999999974752427e-7,
        -3.5
      ],
      "type": "VEC3"
    },
    {
      "bufferView": 25,
      "componentType": 5126,
      "count": 36,
      "max": [
        1,
        1,
        1
      ],
      "min": [
        -1,
        -1,
        -1
      ],
      "type": "VEC3"
    },
    {
      "bufferView": 26,
      "componentType": 5126,
      "count": 36,
      "max": [
        0.5223429799079895,
        0.857010006904602
      ],
      "min": [
        0.4973430037498474,
        0.8320099711418152
      ],
      "type": "VEC2"
    }
  ],
  "materials": [
    {
      "pbrMetallicRoughness": {
        "metallicFactor": 0.5,
        "roughnessFactor": 0.5,
        "baseColorTexture": {
          "index": 0
        }
      },
      "name": "DefaultMaterial"
    },
    {
      "pbrMetallicRoughness": {
        "metallicFactor": 0.5,
        "roughnessFactor": 0.5,
        "baseColorTexture": {
          "index": 1
        }
      },
      "name": "DefaultMaterial"
    },
    {
      "pbrMetallicRoughness": {
        "metallicFactor": 0.5,
        "roughnessFactor": 0.5,
        "baseColorTexture": {
          "index": 2
        }
      },
      "name": "Bus"
    },
    {
      "pbrMetallicRoughness": {
        "metallicFactor": 0.5,
        "roughnessFactor": 0.5,
        "baseColorTexture": {
          "index": 3
        }
      },
      "name": "Building_Auto Service"
    },
    {
      "pbrMetallicRoughness": {
        "metallicFactor": 0.5,
        "roughnessFactor": 0.5,
        "baseColorTexture": {
          "index": 4
        }
      },
      "name": "Props_TrafficProps.004"
    },
    {
      "pbrMetallicRoughness": {
        "metallicFactor": 0.5,
        "roughnessFactor": 0.5,
        "baseColorTexture": {
          "index": 5
        }
      },
      "name": "Bus"
    },
    {
      "pbrMetallicRoughness": {
        "metallicFactor": 0.5,
        "roughnessFactor": 0.5,
        "baseColorTexture": {
          "index": 6
        }
      },
      "name": "Props_Props_01.006"
    },
    {
      "pbrMetallicRoughness": {
        "metallicFactor": 0.5,
        "roughnessFactor": 0.5,
        "baseColorTexture": {
          "index": 7
        }
      },
      "name": "Props_RoofProps"
    },
    {
      "pbrMetallicRoughness": {
        "metallicFactor": 0.5,
        "roughnessFactor": 0.5,
        "baseColorTexture": {
          "index": 8
        }
      },
      "name": "Natures.006"
    }
  ],
  "textures": [
    {
      "sampler": 0,
      "source": 0
    },
    {
      "sampler": 1,
      "source": 1
    },
    {
      "sampler": 2,
      "source": 2
    },
    {
      "sampler": 3,
      "source": 3
    },
    {
      "sampler": 4,
      "source": 4
    },
    {
      "sampler": 5,
      "source": 5
    },
    {
      "sampler": 6,
      "source": 6
    },
    {
      "sampler": 7,
      "source": 7
    },
    {
      "sampler": 8,
      "source": 8
    }
  ],
  "samplers": [
    {
      "magFilter": 9729,
      "minFilter": 9987
    },
    {
      "magFilter": 9729,
      "minFilter": 9987
    },
    {
      "magFilter": 9729,
      "minFilter": 9987
    },
    {
      "magFilter": 9729,
      "minFilter": 9987
    },
    {
      "magFilter": 9729,
      "minFilter": 9987
    },
    {
      "magFilter": 9729,
      "minFilter": 9987
    },
    {
      "magFilter": 9729,
      "minFilter": 9987
    },
    {
      "magFilter": 9729,
      "minFilter": 9987
    },
    {
      "magFilter": 9729,
      "minFilter": 9987
    }
  ],
  "images": [
    {
      "mimeType": "image/png",
      "uri": "data:image/png;base64,"
    },
    {
      "mimeType": "image/png",
      "uri": "data:image/png;base64,"
    },
    {
      "mimeType": "image/png",
      "uri": "data:image/png;base64,"
    },
    {
      "mimeType": "image/png",
      "uri": "data:image/png;base64,"
    },
    {
      "mimeType": "image/png",
      "uri": "data:image/png;base64,"
    },
    {
      "mimeType": "image/png",
      "uri": "data:image/png;base64,"
    },
    {
      "mimeType": "image/png",
      "uri": "data:image/png;base64,"
    },
    {
      "mimeType": "image/png",
      "uri": "data:image/png;base64,"
    },
    {
      "mimeType": "image/png",
      "uri": "data:image/png;base64,"
    }
  ],
  "meshes": [
    {
      "primitives": [
        {
          "mode": 4,
          "attributes": {
            "POSITION": 0,
            "NORMAL": 1,
            "TEXCOORD_0": 2
          },
          "material": 0
        }
      ]
    },
    {
      "primitives": [
        {
          "mode": 4,
          "attributes": {
            "POSITION": 3,
            "NORMAL": 4,
            "TEXCOORD_0": 5
          },
          "material": 1
        }
      ]
    },
    {
      "primitives": [
        {
          "mode": 4,
          "attributes": {
            "POSITION": 6,
            "NORMAL": 7,
            "TEXCOORD_0": 8
          },
          "material": 2
        }
      ]
    },
    {
      "primitives": [
        {
          "mode": 4,
          "attributes": {
            "POSITION": 9,
            "NORMAL": 10,
            "TEXCOORD_0": 11
          },
          "material": 3
        }
      ]
    },
    {
      "primitives": [
        {
          "mode": 4,
          "attributes": {
            "POSITION": 12,
            "NORMAL": 13,
            "TEXCOORD_0": 14
          },
          "material": 4
        }
      ]
    },
    {
      "primitives": [
        {
          "mode": 4,
          "attributes": {
            "POSITION": 15,
            "NORMAL": 16,
            "TEXCOORD_0": 17
          },
          "material": 5
        }
      ]
    },
    {
      "primitives": [
        {
          "mode": 4,
          "attributes": {
            "POSITION": 18,
            "NORMAL": 19,
            "TEXCOORD_0": 20
          },
          "material": 6
        }
      ]
    },
    {
      "primitives": [
        {
          "mode": 4,
          "attributes": {
            "POSITION": 21,
            "NORMAL": 22,
            "TEXCOORD_0": 23
          },
          "material": 7
        }
      ]
    },
    {
      "primitives": [
        {
          "mode": 4,
          "attributes": {
            "POSITION": 24,
            "NORMAL": 25,
            "TEXCOORD_0": 26
          },
          "material": 8
        }
      ]
    }
  ]
}