{
  "accessors": [
    {
      "bufferView": 0,
      "byteOffset": 0,
      "componentType": 5123,
      "count": 738,
      "max": [
        737.0
      ],
      "min": [
        0.0
      ],
      "name": "buffer-0-accessor-indices-buffer-0-mesh-0",
      "type": "SCALAR"
    },
    {
      "bufferView": 2,
      "byteOffset": 0,
      "componentType": 5126,
      "count": 738,
      "max": [
        0.22058899700641632,
        10.090154647827148,
        1.9712430238723755
      ],
      "min": [
        -0.17919500172138214,
        0.0,
        -1.9678759574890137
      ],
      "name": "buffer-0-accessor-position-buffer-0-mesh-0",
      "type": "VEC3"
    },
    {
      "bufferView": 2,
      "byteOffset": 8856,
      "componentType": 5126,
      "count": 738,
      "max": [
        1.0,
        1.0,
        1.0
      ],
      "min": [
        -1.0,
        -0.6140000224113464,
        -1.0
      ],
      "name": "buffer-0-accessor-normal-buffer-0-mesh-0",
      "type": "VEC3"
    },
    {
      "bufferView": 1,
      "byteOffset": 0,
      "componentType": 5126,
      "count": 0,
      "max": [
        0.0,
        0.0
      ],
      "min": [
        0.0,
        0.0
      ],
      "name": "buffer-0-accessor-texcoord-buffer-0-mesh-0",
      "type": "VEC2"
    },
    {
      "bufferView": 3,
      "byteOffset": 0,
      "componentType": 5126,
      "count": 0,
      "max": [
        0.0,
        0.0,
        0.0,
        0.0
      ],
      "min": [
        0.0,
        0.0,
        0.0,
        0.0
      ],
      "name": "buffer-0-accessor-color-buffer-0-mesh-0",
      "type": "VEC4"
    },
    {
      "bufferView": 0,
      "byteOffset": 1476,
      "componentType": 5123,
      "count": 180,
      "max": [
        179.0
      ],
      "min": [
        0.0
      ],
      "name": "buffer-0-accessor-indices-buffer-0-mesh-0",
      "type": "SCALAR"
    },
    {
      "bufferView": 2,
      "byteOffset": 17712,
      "componentType": 5126,
      "count": 180,
      "max": [
        0.5193830132484436,
        6.488255023956299,
        2.4786670207977295
      ],
      "min": [
        -0.43146300315856934,
        0.0,
        -2.4577720165252686
      ],
      "name": "buffer-0-accessor-position-buffer-0-mesh-0",
      "type": "VEC3"
    },
    {
      "bufferView": 2,
      "byteOffset": 19872,
      "componentType": 5126,
      "count": 180,
      "max": [
        1.0,
        0.9861000180244446,
        1.0
      ],
      "min": [
        -1.0,
        -0.014700000174343586,
        -1.0
      ],
      "name": "buffer-0-accessor-normal-buffer-0-mesh-0",
      "type": "VEC3"
    },
    {
      "bufferView": 1,
      "byteOffset": 0,
      "componentType": 5126,
      "count": 0,
      "max": [
        0.0,
        0.0
      ],
      "min": [
        0.0,
        0.0
      ],
      "name": "buffer-0-accessor-texcoord-buffer-0-mesh-0",
      "type": "VEC2"
    },
    {
      "bufferView": 3,
      "byteOffset": 0,
      "componentType": 5126,
      "count": 0,
      "max": [
        0.0,
        0.0,
        0.0,
        0.0
      ],
      "min": [
        0.0,
        0.0,
        0.0,
        0.0
      ],
      "name": "buffer-0-accessor-color-buffer-0-mesh-0",
      "type": "VEC4"
    },
    {
      "bufferView": 0,
      "byteOffset": 1836,
      "componentType": 5123,
      "count": 144,
      "max": [
        143.0
      ],
      "min": [
        0.0
      ],
      "name": "buffer-0-accessor-indices-buffer-0-mesh-0",
      "type": "SCALAR"
    },
    {
      "bufferView": 2,
      "byteOffset": 22032,
      "componentType": 5126,
      "count": 144,
      "max": [
        0.3252910077571869,
        6.037530899047852,
        2.2175209522247314
      ],
      "min": [
        -0.22940999269485474,
        0.0,
        -2.2141549587249756
      ],
      "name": "buffer-0-accessor-position-buffer-0-mesh-0",
      "type": "VEC3"
    },
    {
      "bufferView": 2,
      "byteOffset": 23760,
      "componentType": 5126,
      "count": 144,
      "max": [
        1.0,
        0.0,
        1.0
      ],
      "min": [
        -1.0,
        -0.9598000049591064,
        -1.0
      ],
      "name": "buffer-0-accessor-normal-buffer-0-mesh-0",
      "type": "VEC3"
    },
    {
      "bufferView": 1,
      "byteOffset": 0,
      "componentType": 5126,
      "count": 0,
      "max": [
        0.0,
        0.0
      ],
      "min": [
        0.0,
        0.0
      ],
      "name": "buffer-0-accessor-texcoord-buffer-0-mesh-0",
      "type": "VEC2"
    },
    {
      "bufferView": 3,
      "byteOffset": 0,
      "componentType": 5126,
      "count": 0,
      "max": [
        0.0,
        0.0,
        0.0,
        0.0
      ],
      "min": [
        0.0,
        0.0,
        0.0,
        0.0
      ],
      "name": "buffer-0-accessor-color-buffer-0-mesh-0",
      "type": "VEC4"
    }
  ],
  "asset": {
    "generator": "Obj2GltfConverter",
    "version": "2.0"
  },
  "bufferViews": [
    {
      "buffer": 0,
      "byteLength": 2124,
      "byteOffset": 0,
      "byteStride": 0,
      "name": "buffer-0-bufferview-ushort",
      "target": 34963
    },
    {
      "buffer": 0,
      "byteLength": 0,
      "byteOffset": 2128,
      "byteStride": 8,
      "name": "buffer-0-bufferview-vec2",
      "target": 34962
    },
    {
      "buffer": 0,
      "byteLength": 25488,
      "byteOffset": 2136,
      "byteStride": 12,
      "name": "buffer-0-bufferview-vec3",
      "target": 34962
    },
    {
      "buffer": 0,
      "byteLength": 0,
      "byteOffset": 27632,
      "byteStride": 16,
      "name": "buffer-0-bufferview-vec4",
      "target": 34962
    }
  ],
  "buffers": [
    {
      "byteLength": 27632,
      "name": "buffer-0",
      "uri": "Chocolate_01.bin"
    }
  ],
  "materials": [
    {
      "alphaMode": "OPAQUE",
      "doubleSided": true,
      "name": "795548",
      "pbrMetallicRoughness": {
        "baseColorFactor": [
          0.47451,
          0.333333,
          0.282353,
          1.0
        ],
        "metallicFactor": 0.0,
        "roughnessFactor": 0.7448017359246658
      }
    },
    {
      "alphaMode": "OPAQUE",
      "doubleSided": true,
      "name": "78909C",
      "pbrMetallicRoughness": {
        "baseColorFactor": [
          0.470588,
          0.564706,
          0.611765,
          1.0
        ],
        "metallicFactor": 0.0,
        "roughnessFactor": 0.7448017359246658
      }
    },
    {
      "alphaMode": "OPAQUE",
      "doubleSided": true,
      "name": "00BCD4",
      "pbrMetallicRoughness": {
        "baseColorFactor": [
          0.0,
          0.737255,
          0.831373,
          1.0
        ],
        "metallicFactor": 0.0,
        "roughnessFactor": 0.7448017359246658
      }
    }
  ],
  "meshes": [
    {
      "name": "buffer-0-mesh-0",
      "primitives": [
        {
          "attributes": {
            "POSITION": 1,
            "NORMAL": 2,
            "TEXCOORD_0": 3
          },
          "indices": 0,
          "material": 0,
          "mode": 4
        },
        {
          "attributes": {
            "POSITION": 6,
            "NORMAL": 7,
            "TEXCOORD_0": 8
          },
          "indices": 5,
          "material": 1,
          "mode": 4
        },
        {
          "attributes": {
            "POSITION": 11,
            "NORMAL": 12,
            "TEXCOORD_0": 13
          },
          "indices": 10,
          "material": 2,
          "mode": 4
        }
      ]
    }
  ],
  "nodes": [
    {
      "mesh": 0,
      "name": "node-0"
    }
  ],
  "scenes": [
    {
      "name": "scene-0",
      "nodes": [
        0
      ]
    }
  ]
}