{
  "accessors": [
    {
      "bufferView": 0,
      "byteOffset": 0,
      "componentType": 5123,
      "count": 65535,
      "max": [
        65534.0
      ],
      "min": [
        0.0
      ],
      "name": "buffer-0-group-0-mesh-0-indices",
      "type": "SCALAR"
    },
    {
      "bufferView": 2,
      "byteOffset": 0,
      "componentType": 5126,
      "count": 65535,
      "max": [
        3.9382429122924805,
        2.0072178840637207,
        1.8833069801330566
      ],
      "min": [
        -4.021462917327881,
        0.0,
        -6.076397895812988
      ],
      "name": "buffer-0-group-0-mesh-0-position",
      "type": "VEC3"
    },
    {
      "bufferView": 2,
      "byteOffset": 786420,
      "componentType": 5126,
      "count": 65535,
      "max": [
        0.9111999869346619,
        0.996999979019165,
        1.0
      ],
      "min": [
        -0.9111999869346619,
        -0.9937000274658203,
        -1.0
      ],
      "name": "buffer-0-group-0-mesh-0-normal",
      "type": "VEC3"
    },
    {
      "bufferView": 0,
      "byteOffset": 131070,
      "componentType": 5123,
      "count": 65535,
      "max": [
        65534.0
      ],
      "min": [
        0.0
      ],
      "name": "buffer-0-group-0-mesh-1-indices",
      "type": "SCALAR"
    },
    {
      "bufferView": 2,
      "byteOffset": 1572840,
      "componentType": 5126,
      "count": 65535,
      "max": [
        3.2405738830566406,
        2.2866859436035156,
        0.0
      ],
      "min": [
        0.0,
        0.0,
        -2.460010051727295
      ],
      "name": "buffer-0-group-0-mesh-1-position",
      "type": "VEC3"
    },
    {
      "bufferView": 2,
      "byteOffset": 2359260,
      "componentType": 5126,
      "count": 65535,
      "max": [
        0.6891000270843506,
        0.9998000264167786,
        1.0
      ],
      "min": [
        -0.9997000098228455,
        -0.9995999932289124,
        -1.0
      ],
      "name": "buffer-0-group-0-mesh-1-normal",
      "type": "VEC3"
    },
    {
      "bufferView": 0,
      "byteOffset": 262140,
      "componentType": 5123,
      "count": 65535,
      "max": [
        65534.0
      ],
      "min": [
        0.0
      ],
      "name": "buffer-0-group-0-mesh-2-indices",
      "type": "SCALAR"
    },
    {
      "bufferView": 2,
      "byteOffset": 3145680,
      "componentType": 5126,
      "count": 65535,
      "max": [
        3.619174003601074,
        2.90739107131958,
        0.0
      ],
      "min": [
        0.0,
        0.0,
        -2.2718141078948975
      ],
      "name": "buffer-0-group-0-mesh-2-position",
      "type": "VEC3"
    },
    {
      "bufferView": 2,
      "byteOffset": 3932100,
      "componentType": 5126,
      "count": 65535,
      "max": [
        1.0,
        0.7821999788284302,
        1.0
      ],
      "min": [
        -1.0,
        -0.757099986076355,
        -1.0
      ],
      "name": "buffer-0-group-0-mesh-2-normal",
      "type": "VEC3"
    },
    {
      "bufferView": 0,
      "byteOffset": 393210,
      "componentType": 5123,
      "count": 65535,
      "max": [
        65534.0
      ],
      "min": [
        0.0
      ],
      "name": "buffer-0-group-0-mesh-3-indices",
      "type": "SCALAR"
    },
    {
      "bufferView": 2,
      "byteOffset": 4718520,
      "componentType": 5126,
      "count": 65535,
      "max": [
        3.6166939735412598,
        3.454005002975464,
        0.0
      ],
      "min": [
        0.0,
        0.0,
        -2.2704970836639404
      ],
      "name": "buffer-0-group-0-mesh-3-position",
      "type": "VEC3"
    },
    {
      "bufferView": 2,
      "byteOffset": 5504940,
      "componentType": 5126,
      "count": 65535,
      "max": [
        0.9976000189781189,
        0.9997000098228455,
        1.0
      ],
      "min": [
        -1.0,
        -0.9998000264167786,
        -1.0
      ],
      "name": "buffer-0-group-0-mesh-3-normal",
      "type": "VEC3"
    },
    {
      "bufferView": 0,
      "byteOffset": 524280,
      "componentType": 5123,
      "count": 65535,
      "max": [
        65534.0
      ],
      "min": [
        0.0
      ],
      "name": "buffer-0-group-0-mesh-4-indices",
      "type": "SCALAR"
    },
    {
      "bufferView": 2,
      "byteOffset": 6291360,
      "componentType": 5126,
      "count": 65535,
      "max": [
        3.146275043487549,
        3.454209089279175,
        0.0
      ],
      "min": [
        0.0,
        0.0,
        -2.484316110610962
      ],
      "name": "buffer-0-group-0-mesh-4-position",
      "type": "VEC3"
    },
    {
      "bufferView": 2,
      "byteOffset": 7077780,
      "componentType": 5126,
      "count": 65535,
      "max": [
        0.9083999991416931,
        1.0,
        0.9998000264167786
      ],
      "min": [
        -0.9937000274658203,
        -1.0,
        -0.9998000264167786
      ],
      "name": "buffer-0-group-0-mesh-4-normal",
      "type": "VEC3"
    },
    {
      "bufferView": 0,
      "byteOffset": 655350,
      "componentType": 5123,
      "count": 65535,
      "max": [
        65534.0
      ],
      "min": [
        0.0
      ],
      "name": "buffer-0-group-0-mesh-5-indices",
      "type": "SCALAR"
    },
    {
      "bufferView": 2,
      "byteOffset": 7864200,
      "componentType": 5126,
      "count": 65535,
      "max": [
        2.5322000980377197,
        3.3729898929595947,
        0.14461199939250946
      ],
      "min": [
        -2.176508903503418,
        0.0,
        -4.279439926147461
      ],
      "name": "buffer-0-group-0-mesh-5-position",
      "type": "VEC3"
    },
    {
      "bufferView": 2,
      "byteOffset": 8650620,
      "componentType": 5126,
      "count": 65535,
      "max": [
        0.9053999781608582,
        0.9997000098228455,
        0.9991000294685364
      ],
      "min": [
        -1.0,
        -0.9987999796867371,
        -0.9991000294685364
      ],
      "name": "buffer-0-group-0-mesh-5-normal",
      "type": "VEC3"
    },
    {
      "bufferView": 0,
      "byteOffset": 786420,
      "componentType": 5123,
      "count": 65535,
      "max": [
        65534.0
      ],
      "min": [
        0.0
      ],
      "name": "buffer-0-group-0-mesh-6-indices",
      "type": "SCALAR"
    },
    {
      "bufferView": 2,
      "byteOffset": 9437040,
      "componentType": 5126,
      "count": 65535,
      "max": [
        2.2211151123046875,
        2.099212884902954,
        0.2770569920539856
      ],
      "min": [
        -2.3043360710144043,
        0.0,
        -4.411884784698486
      ],
      "name": "buffer-0-group-0-mesh-6-position",
      "type": "VEC3"
    },
    {
      "bufferView": 2,
      "byteOffset": 10223460,
      "componentType": 5126,
      "count": 65535,
      "max": [
        1.0,
        0.0,
        1.0
      ],
      "min": [
        -1.0,
        -0.9126999974250793,
        -1.0
      ],
      "name": "buffer-0-group-0-mesh-6-normal",
      "type": "VEC3"
    },
    {
      "bufferView": 0,
      "byteOffset": 917490,
      "componentType": 5123,
      "count": 65535,
      "max": [
        65534.0
      ],
      "min": [
        0.0
      ],
      "name": "buffer-0-group-0-mesh-7-indices",
      "type": "SCALAR"
    },
    {
      "bufferView": 2,
      "byteOffset": 11009880,
      "componentType": 5126,
      "count": 65535,
      "max": [
        2.4348320960998535,
        3.712904930114746,
        0.4984950125217438
      ],
      "min": [
        -2.5180530548095703,
        0.0,
        -4.633324146270752
      ],
      "name": "buffer-0-group-0-mesh-7-position",
      "type": "VEC3"
    },
    {
      "bufferView": 2,
      "byteOffset": 11796300,
      "componentType": 5126,
      "count": 65535,
      "max": [
        1.0,
        0.9492999911308289,
        1.0
      ],
      "min": [
        -1.0,
        -0.45399999618530273,
        -1.0
      ],
      "name": "buffer-0-group-0-mesh-7-normal",
      "type": "VEC3"
    },
    {
      "bufferView": 0,
      "byteOffset": 1048560,
      "componentType": 5123,
      "count": 57864,
      "max": [
        57863.0
      ],
      "min": [
        0.0
      ],
      "name": "buffer-0-group-0-mesh-8-indices",
      "type": "SCALAR"
    },
    {
      "bufferView": 2,
      "byteOffset": 12582720,
      "componentType": 5126,
      "count": 57864,
      "max": [
        2.4094181060791016,
        3.71684193611145,
        0.47216200828552246
      ],
      "min": [
        -2.492638111114502,
        0.0,
        -4.606990814208984
      ],
      "name": "buffer-0-group-0-mesh-8-position",
      "type": "VEC3"
    },
    {
      "bufferView": 2,
      "byteOffset": 13277088,
      "componentType": 5126,
      "count": 57864,
      "max": [
        1.0,
        1.0,
        1.0
      ],
      "min": [
        -1.0,
        -0.4560000002384186,
        -1.0
      ],
      "name": "buffer-0-group-0-mesh-8-normal",
      "type": "VEC3"
    },
    {
      "bufferView": 0,
      "byteOffset": 1164288,
      "componentType": 5123,
      "count": 8064,
      "max": [
        8063.0
      ],
      "min": [
        0.0
      ],
      "name": "buffer-0-group-1-mesh-0-indices",
      "type": "SCALAR"
    },
    {
      "bufferView": 2,
      "byteOffset": 13971456,
      "componentType": 5126,
      "count": 8064,
      "max": [
        3.965265989303589,
        1.1168739795684814,
        1.9103319644927979
      ],
      "min": [
        -4.048487186431885,
        0.0,
        -6.103422164916992
      ],
      "name": "buffer-0-group-1-mesh-0-position",
      "type": "VEC3"
    },
    {
      "bufferView": 2,
      "byteOffset": 14068224,
      "componentType": 5126,
      "count": 8064,
      "max": [
        1.0,
        1.0,
        1.0
      ],
      "min": [
        -1.0,
        -1.0,
        -1.0
      ],
      "name": "buffer-0-group-1-mesh-0-normal",
      "type": "VEC3"
    },
    {
      "bufferView": 0,
      "byteOffset": 1180416,
      "componentType": 5123,
      "count": 65535,
      "max": [
        65534.0
      ],
      "min": [
        0.0
      ],
      "name": "buffer-0-group-2-mesh-0-indices",
      "type": "SCALAR"
    },
    {
      "bufferView": 2,
      "byteOffset": 14164992,
      "componentType": 5126,
      "count": 65535,
      "max": [
        2.2720189094543457,
        3.121026039123535,
        0.329800009727478
      ],
      "min": [
        -2.3552401065826416,
        0.0,
        -4.464628219604492
      ],
      "name": "buffer-0-group-2-mesh-0-position",
      "type": "VEC3"
    },
    {
      "bufferView": 2,
      "byteOffset": 14951412,
      "componentType": 5126,
      "count": 65535,
      "max": [
        0.9998999834060669,
        0.6010000109672546,
        0.9998999834060669
      ],
      "min": [
        -0.9998999834060669,
        -0.4560000002384186,
        -0.9998999834060669
      ],
      "name": "buffer-0-group-2-mesh-0-normal",
      "type": "VEC3"
    },
    {
      "bufferView": 0,
      "byteOffset": 1311486,
      "componentType": 5123,
      "count": 65535,
      "max": [
        65534.0
      ],
      "min": [
        0.0
      ],
      "name": "buffer-0-group-2-mesh-1-indices",
      "type": "SCALAR"
    },
    {
      "bufferView": 2,
      "byteOffset": 15737832,
      "componentType": 5126,
      "count": 65535,
      "max": [
        1.8152689933776855,
        1.6132270097732544,
        0.0
      ],
      "min": [
        -1.8984899520874023,
        0.0,
        -3.99137806892395
      ],
      "name": "buffer-0-group-2-mesh-1-position",
      "type": "VEC3"
    },
    {
      "bufferView": 2,
      "byteOffset": 16524252,
      "componentType": 5126,
      "count": 65535,
      "max": [
        0.8604999780654907,
        0.9955000281333923,
        0.852400004863739
      ],
      "min": [
        -0.8604999780654907,
        0.0,
        -0.852400004863739
      ],
      "name": "buffer-0-group-2-mesh-1-normal",
      "type": "VEC3"
    },
    {
      "bufferView": 0,
      "byteOffset": 1442556,
      "componentType": 5123,
      "count": 65535,
      "max": [
        65534.0
      ],
      "min": [
        0.0
      ],
      "name": "buffer-0-group-2-mesh-2-indices",
      "type": "SCALAR"
    },
    {
      "bufferView": 2,
      "byteOffset": 17310672,
      "componentType": 5126,
      "count": 65535,
      "max": [
        2.2720189094543457,
        3.121026039123535,
        0.329800009727478
      ],
      "min": [
        -2.3552401065826416,
        0.0,
        -4.464628219604492
      ],
      "name": "buffer-0-group-2-mesh-2-position",
      "type": "VEC3"
    },
    {
      "bufferView": 2,
      "byteOffset": 18097092,
      "componentType": 5126,
      "count": 65535,
      "max": [
        0.8931000232696533,
        1.0,
        0.8939999938011169
      ],
      "min": [
        -0.8931000232696533,
        -1.0,
        -0.8939999938011169
      ],
      "name": "buffer-0-group-2-mesh-2-normal",
      "type": "VEC3"
    },
    {
      "bufferView": 0,
      "byteOffset": 1573626,
      "componentType": 5123,
      "count": 6147,
      "max": [
        6146.0
      ],
      "min": [
        0.0
      ],
      "name": "buffer-0-group-2-mesh-3-indices",
      "type": "SCALAR"
    },
    {
      "bufferView": 2,
      "byteOffset": 18883512,
      "componentType": 5126,
      "count": 6147,
      "max": [
        0.9010559916496277,
        3.0999910831451416,
        0.0
      ],
      "min": [
        -0.7212349772453308,
        0.0,
        -3.063271999359131
      ],
      "name": "buffer-0-group-2-mesh-3-position",
      "type": "VEC3"
    },
    {
      "bufferView": 2,
      "byteOffset": 18957276,
      "componentType": 5126,
      "count": 6147,
      "max": [
        0.0,
        0.0,
        0.0
      ],
      "min": [
        0.0,
        -1.0,
        0.0
      ],
      "name": "buffer-0-group-2-mesh-3-normal",
      "type": "VEC3"
    }
  ],
  "asset": {
    "generator": "Obj2GltfConverter",
    "version": "2.0"
  },
  "bufferViews": [
    {
      "buffer": 0,
      "byteLength": 1585920,
      "byteOffset": 0,
      "byteStride": 0,
      "name": "buffer-0-bufferview-ushort",
      "target": 34963
    },
    {
      "buffer": 0,
      "byteLength": 0,
      "byteOffset": 1585920,
      "byteStride": 0,
      "name": "buffer-0-bufferview-vec2",
      "target": 34962
    },
    {
      "buffer": 0,
      "byteLength": 19031040,
      "byteOffset": 1585920,
      "byteStride": 12,
      "name": "buffer-0-bufferview-vec3",
      "target": 34962
    },
    {
      "buffer": 0,
      "byteLength": 0,
      "byteOffset": 20616960,
      "byteStride": 0,
      "name": "buffer-0-bufferview-vec4",
      "target": 34962
    }
  ],
  "buffers": [
    {
      "byteLength": 20616960,
      "name": "buffer-0",
      "uri": "coffee.bin"
    }
  ],
  "materials": [
    {
      "alphaMode": "OPAQUE",
      "doubleSided": true,
      "name": "cup",
      "pbrMetallicRoughness": {
        "baseColorFactor": [
          0.4216,
          0.421692,
          0.421692,
          1.0
        ],
        "metallicFactor": 0.0,
        "roughnessFactor": 0.7448017359246658
      }
    },
    {
      "alphaMode": "OPAQUE",
      "doubleSided": true,
      "name": "brown",
      "pbrMetallicRoughness": {
        "baseColorFactor": [
          0.3256,
          0.07807,
          0.029512,
          1.0
        ],
        "metallicFactor": 0.0,
        "roughnessFactor": 0.7448017359246658
      }
    },
    {
      "alphaMode": "OPAQUE",
      "doubleSided": true,
      "name": "coffee",
      "pbrMetallicRoughness": {
        "baseColorFactor": [
          0.0144,
          0.006855,
          0.006419,
          1.0
        ],
        "metallicFactor": 0.0,
        "roughnessFactor": 0.7448017359246658
      }
    }
  ],
  "meshes": [
    {
      "name": "buffer-0-mesh-0",
      "primitives": [
        {
          "attributes": {
            "POSITION": 1,
            "NORMAL": 2
          },
          "indices": 0,
          "material": 0,
          "mode": 4
        },
        {
          "attributes": {
            "POSITION": 4,
            "NORMAL": 5
          },
          "indices": 3,
          "material": 0,
          "mode": 4
        },
        {
          "attributes": {
            "POSITION": 7,
            "NORMAL": 8
          },
          "indices": 6,
          "material": 0,
          "mode": 4
        },
        {
          "attributes": {
            "POSITION": 10,
            "NORMAL": 11
          },
          "indices": 9,
          "material": 0,
          "mode": 4
        },
        {
          "attributes": {
            "POSITION": 13,
            "NORMAL": 14
          },
          "indices": 12,
          "material": 0,
          "mode": 4
        },
        {
          "attributes": {
            "POSITION": 16,
            "NORMAL": 17
          },
          "indices": 15,
          "material": 0,
          "mode": 4
        },
        {
          "attributes": {
            "POSITION": 19,
            "NORMAL": 20
          },
          "indices": 18,
          "material": 0,
          "mode": 4
        },
        {
          "attributes": {
            "POSITION": 22,
            "NORMAL": 23
          },
          "indices": 21,
          "material": 0,
          "mode": 4
        },
        {
          "attributes": {
            "POSITION": 25,
            "NORMAL": 26
          },
          "indices": 24,
          "material": 0,
          "mode": 4
        },
        {
          "attributes": {
            "POSITION": 28,
            "NORMAL": 29
          },
          "indices": 27,
          "material": 1,
          "mode": 4
        },
        {
          "attributes": {
            "POSITION": 31,
            "NORMAL": 32
          },
          "indices": 30,
          "material": 2,
          "mode": 4
        },
        {
          "attributes": {
            "POSITION": 34,
            "NORMAL": 35
          },
          "indices": 33,
          "material": 2,
          "mode": 4
        },
        {
          "attributes": {
            "POSITION": 37,
            "NORMAL": 38
          },
          "indices": 36,
          "material": 2,
          "mode": 4
        },
        {
          "attributes": {
            "POSITION": 40,
            "NORMAL": 41
          },
          "indices": 39,
          "material": 2,
          "mode": 4
        }
      ]
    }
  ],
  "nodes": [
    {
      "mesh": 0,
      "name": "node-0"
    }
  ],
  "scenes": [
    {
      "name": "scene-0",
      "nodes": [
        0
      ]
    }
  ]
}