{
  "asset": {
    "version": "2.0",
    "generator": "THREE.GLTFExporter"
  },
  "scenes": [
    {
      "nodes": [
        0,
        1,
        2,
        4,
        6,
        8,
        10,
        12,
        14
      ],
      "name": "Scene"
    }
  ],
  "scene": 0,
  "nodes": [
    {
      "matrix": [
        1,
        0,
        0,
        0,
        0,
        1,
        0,
        0,
        0,
        0,
        1,
        0,
        25,
        0,
        25,
        1
      ],
      "name": "Natures_Big Tree_Mesh.008",
      "mesh": 0
    },
    {
      "matrix": [
        1,
        0,
        0,
        0,
        0,
        1,
        0,
        0,
        0,
        0,
        1,
        0,
        -5,
        0,
        25,
        1
      ],
      "name": "Natures_Big Tree_Mesh.008",
      "mesh": 1
    },
    {
      "matrix": [
        1,
        0,
        0,
        0,
        0,
        1,
        0,
        0,
        0,
        0,
        1,
        0,
        -5,
        0,
        -5,
        1
      ],
      "name": "Natures_Big Tree_Mesh.008",
      "mesh": 2
    },
    {
      "matrix": [
        1,
        0,
        0,
        0,
        0,
        1,
        0,
        0,
        0,
        0,
        1,
        0,
        25,
        0,
        -5,
        1
      ],
      "name": "Natures_Big Tree_Mesh.008",
      "mesh": 3
    },
    {
      "name": "Natures_Big_Tree.obj",
      "children": [
        3
      ]
    },
    {
      "matrix": [
        2.220446049250313e-16,
        0,
        1,
        0,
        0,
        1,
        0,
        0,
        -1,
        0,
        2.220446049250313e-16,
        0,
        5,
        0,
        4.337654,
        1
      ],
      "name": "Building_Shoes Shop_Cube.015",
      "extras": {
        "name": "Shoe Shop",
        "ip": "120.51.154.142",
        "ports": 757,
        "loot": [
          "dishwasher",
          "mop",
          "ladder",
          "phone",
          "gameboy",
          "drill"
        ]
      },
      "mesh": 4
    },
    {
      "name": "Building_Shoes_Shop.obj",
      "children": [
        5
      ]
    },
    {
      "matrix": [
        -1,
        0,
        0,
        0,
        0,
        1,
        0,
        0,
        0,
        0,
        -1,
        0,
        17.056059,
        0,
        3.76755,
        1
      ],
      "name": "Building_Fruits  Shop_Cube.2119",
      "extras": {
        "name": "Fruit Shop",
        "ip": "229.91.196.20",
        "ports": 810,
        "loot": [
          "avocado",
          "tomato",
          "apple",
          "banana"
        ]
      },
      "mesh": 5
    },
    {
      "name": "Building_Fruits_Shop.obj",
      "children": [
        7
      ]
    },
    {
      "matrix": [
        1,
        0,
        0,
        0,
        0,
        1,
        0,
        0,
        0,
        0,
        1,
        0,
        4.518026,
        0,
        16.582715,
        1
      ],
      "name": "Building_Clothing_Cube.004",
      "extras": {
        "name": "Clothing Shop",
        "ip": "222.8.213.66",
        "ports": 162,
        "loot": [
          "iron",
          "ladder",
          "mop",
          "phone"
        ]
      },
      "mesh": 6
    },
    {
      "name": "Building_Clothing.obj",
      "children": [
        9
      ]
    },
    {
      "matrix": [
        2.220446049250313e-16,
        0,
        -1,
        0,
        0,
        1,
        0,
        0,
        1,
        0,
        2.220446049250313e-16,
        0,
        16.697341,
        0,
        16.040711,
        1
      ],
      "name": "Building_Books Shop_Cube.018",
      "extras": {
        "name": "Book Shop",
        "ip": "68.239.203.8",
        "ports": [
          512,
          320
        ],
        "loot": [
          "oven",
          "ladder",
          "mop",
          "dishwasher",
          "wine"
        ]
      },
      "mesh": 7
    },
    {
      "name": "Building_Books_Shop.obj",
      "children": [
        11
      ]
    },
    {
      "matrix": [
        2,
        0,
        0,
        0,
        0,
        1,
        0,
        0,
        0,
        0,
        2,
        0,
        10,
        0,
        10,
        1
      ],
      "name": "Natures_Grass Tile_Plane.010",
      "mesh": 8
    },
    {
      "name": "Natures_Grass_Tile.obj",
      "children": [
        13
      ]
    }
  ],
  "bufferViews": [
    {
      "buffer": 0,
      "byteOffset": 0,
      "byteLength": 15984,
      "target": 34962,
      "byteStride": 12
    },
    {
      "buffer": 0,
      "byteOffset": 15984,
      "byteLength": 15984,
      "target": 34962,
      "byteStride": 12
    },
    {
      "buffer": 0,
      "byteOffset": 31968,
      "byteLength": 10656,
      "target": 34962,
      "byteStride": 8
    },
    {
      "buffer": 0,
      "byteOffset": 42624,
      "byteLength": 15984,
      "target": 34962,
      "byteStride": 12
    },
    {
      "buffer": 0,
      "byteOffset": 58608,
      "byteLength": 15984,
      "target": 34962,
      "byteStride": 12
    },
    {
      "buffer": 0,
      "byteOffset": 74592,
      "byteLength": 10656,
      "target": 34962,
      "byteStride": 8
    },
    {
      "buffer": 0,
      "byteOffset": 85248,
      "byteLength": 15984,
      "target": 34962,
      "byteStride": 12
    },
    {
      "buffer": 0,
      "byteOffset": 101232,
      "byteLength": 15984,
      "target": 34962,
      "byteStride": 12
    },
    {
      "buffer": 0,
      "byteOffset": 117216,
      "byteLength": 10656,
      "target": 34962,
      "byteStride": 8
    },
    {
      "buffer": 0,
      "byteOffset": 127872,
      "byteLength": 15984,
      "target": 34962,
      "byteStride": 12
    },
    {
      "buffer": 0,
      "byteOffset": 143856,
      "byteLength": 15984,
      "target": 34962,
      "byteStride": 12
    },
    {
      "buffer": 0,
      "byteOffset": 159840,
      "byteLength": 10656,
      "target": 34962,
      "byteStride": 8
    },
    {
      "buffer": 0,
      "byteOffset": 170496,
      "byteLength": 12168,
      "target": 34962,
      "byteStride": 12
    },
    {
      "buffer": 0,
      "byteOffset": 182664,
      "byteLength": 12168,
      "target": 34962,
      "byteStride": 12
    },
    {
      "buffer": 0,
      "byteOffset": 194832,
      "byteLength": 8112,
      "target": 34962,
      "byteStride": 8
    },
    {
      "buffer": 0,
      "byteOffset": 202944,
      "byteLength": 18864,
      "target": 34962,
      "byteStride": 12
    },
    {
      "buffer": 0,
      "byteOffset": 221808,
      "byteLength": 18864,
      "target": 34962,
      "byteStride": 12
    },
    {
      "buffer": 0,
      "byteOffset": 240672,
      "byteLength": 12576,
      "target": 34962,
      "byteStride": 8
    },
    {
      "buffer": 0,
      "byteOffset": 253248,
      "byteLength": 19728,
      "target": 34962,
      "byteStride": 12
    },
    {
      "buffer": 0,
      "byteOffset": 272976,
      "byteLength": 19728,
      "target": 34962,
      "byteStride": 12
    },
    {
      "buffer": 0,
      "byteOffset": 292704,
      "byteLength": 13152,
      "target": 34962,
      "byteStride": 8
    },
    {
      "buffer": 0,
      "byteOffset": 305856,
      "byteLength": 12168,
      "target": 34962,
      "byteStride": 12
    },
    {
      "buffer": 0,
      "byteOffset": 318024,
      "byteLength": 12168,
      "target": 34962,
      "byteStride": 12
    },
    {
      "buffer": 0,
      "byteOffset": 330192,
      "byteLength": 8112,
      "target": 34962,
      "byteStride": 8
    },
    {
      "buffer": 0,
      "byteOffset": 338304,
      "byteLength": 72,
      "target": 34962,
      "byteStride": 12
    },
    {
      "buffer": 0,
      "byteOffset": 338376,
      "byteLength": 72,
      "target": 34962,
      "byteStride": 12
    },
    {
      "buffer": 0,
      "byteOffset": 338448,
      "byteLength": 48,
      "target": 34962,
      "byteStride": 8
    }
  ],
  "buffers": [
    {
      "byteLength": 338496,
      "uri": "data:application/octet-stream;base64,"
    }
  ],
  "accessors": [
    {
      "bufferView": 0,
      "componentType": 5126,
      "count": 1332,
      "max": [
        2.6072800159454346,
        6.117990016937256,
        2.5463099479675293
      ],
      "min": [
        -2.3453900814056396,
        -0.00012199999764561653,
        -2.603019952774048
      ],
      "type": "VEC3"
    },
    {
      "bufferView": 1,
      "componentType": 5126,
      "count": 1332,
      "max": [
        0.9979900121688843,
        1,
        0.9999989867210388
      ],
      "min": [
        -0.9914789795875549,
        -1,
        -0.9920499920845032
      ],
      "type": "VEC3"
    },
    {
      "bufferView": 2,
      "componentType": 5126,
      "count": 1332,
      "max": [
        0.5791370272636414,
        0.7267839908599854
      ],
      "min": [
        0.1108039990067482,
        0.46515700221061707
      ],
      "type": "VEC2"
    },
    {
      "bufferView": 3,
      "componentType": 5126,
      "count": 1332,
      "max": [
        2.6072800159454346,
        6.117990016937256,
        2.5463099479675293
      ],
      "min": [
        -2.3453900814056396,
        -0.00012199999764561653,
        -2.603019952774048
      ],
      "type": "VEC3"
    },
    {
      "bufferView": 4,
      "componentType": 5126,
      "count": 1332,
      "max": [
        0.9979900121688843,
        1,
        0.9999989867210388
      ],
      "min": [
        -0.9914789795875549,
        -1,
        -0.9920499920845032
      ],
      "type": "VEC3"
    },
    {
      "bufferView": 5,
      "componentType": 5126,
      "count": 1332,
      "max": [
        0.5791370272636414,
        0.7267839908599854
      ],
      "min": [
        0.1108039990067482,
        0.46515700221061707
      ],
      "type": "VEC2"
    },
    {
      "bufferView": 6,
      "componentType": 5126,
      "count": 1332,
      "max": [
        2.6072800159454346,
        6.117990016937256,
        2.5463099479675293
      ],
      "min": [
        -2.3453900814056396,
        -0.00012199999764561653,
        -2.603019952774048
      ],
      "type": "VEC3"
    },
    {
      "bufferView": 7,
      "componentType": 5126,
      "count": 1332,
      "max": [
        0.9979900121688843,
        1,
        0.9999989867210388
      ],
      "min": [
        -0.9914789795875549,
        -1,
        -0.9920499920845032
      ],
      "type": "VEC3"
    },
    {
      "bufferView": 8,
      "componentType": 5126,
      "count": 1332,
      "max": [
        0.5791370272636414,
        0.7267839908599854
      ],
      "min": [
        0.1108039990067482,
        0.46515700221061707
      ],
      "type": "VEC2"
    },
    {
      "bufferView": 9,
      "componentType": 5126,
      "count": 1332,
      "max": [
        2.6072800159454346,
        6.117990016937256,
        2.5463099479675293
      ],
      "min": [
        -2.3453900814056396,
        -0.00012199999764561653,
        -2.603019952774048
      ],
      "type": "VEC3"
    },
    {
      "bufferView": 10,
      "componentType": 5126,
      "count": 1332,
      "max": [
        0.9979900121688843,
        1,
        0.9999989867210388
      ],
      "min": [
        -0.9914789795875549,
        -1,
        -0.9920499920845032
      ],
      "type": "VEC3"
    },
    {
      "bufferView": 11,
      "componentType": 5126,
      "count": 1332,
      "max": [
        0.5791370272636414,
        0.7267839908599854
      ],
      "min": [
        0.1108039990067482,
        0.46515700221061707
      ],
      "type": "VEC2"
    },
    {
      "bufferView": 12,
      "componentType": 5126,
      "count": 1014,
      "max": [
        5.517049789428711,
        8.357049942016602,
        6.5242600440979
      ],
      "min": [
        -6.522180080413818,
        -0.000022000000171829015,
        -5.511340141296387
      ],
      "type": "VEC3"
    },
    {
      "bufferView": 13,
      "componentType": 5126,
      "count": 1014,
      "max": [
        1,
        1,
        1
      ],
      "min": [
        -1,
        -1,
        -1
      ],
      "type": "VEC3"
    },
    {
      "bufferView": 14,
      "componentType": 5126,
      "count": 1014,
      "max": [
        0.9773210287094116,
        0.9359509944915771
      ],
      "min": [
        0.058090001344680786,
        0.016450000926852226
      ],
      "type": "VEC2"
    },
    {
      "bufferView": 15,
      "componentType": 5126,
      "count": 1572,
      "max": [
        5.928520202636719,
        11.605600357055664,
        6.167240142822266
      ],
      "min": [
        -6.197669982910156,
        0.00002700000004551839,
        -5.988589763641357
      ],
      "type": "VEC3"
    },
    {
      "bufferView": 16,
      "componentType": 5126,
      "count": 1572,
      "max": [
        1,
        1,
        1
      ],
      "min": [
        -1,
        -1,
        -1
      ],
      "type": "VEC3"
    },
    {
      "bufferView": 17,
      "componentType": 5126,
      "count": 1572,
      "max": [
        0.9779379963874817,
        0.9302570223808289
      ],
      "min": [
        0,
        0
      ],
      "type": "VEC2"
    },
    {
      "bufferView": 18,
      "componentType": 5126,
      "count": 1644,
      "max": [
        5.980299949645996,
        11.605999946594238,
        6.112420082092285
      ],
      "min": [
        -6.145880222320557,
        0.0004349999944679439,
        -6.043399810791016
      ],
      "type": "VEC3"
    },
    {
      "bufferView": 19,
      "componentType": 5126,
      "count": 1644,
      "max": [
        1,
        1,
        1
      ],
      "min": [
        -1,
        -1,
        -1
      ],
      "type": "VEC3"
    },
    {
      "bufferView": 20,
      "componentType": 5126,
      "count": 1644,
      "max": [
        0.9779379963874817,
        0.8689050078392029
      ],
      "min": [
        0,
        0
      ],
      "type": "VEC2"
    },
    {
      "bufferView": 21,
      "componentType": 5126,
      "count": 1014,
      "max": [
        5.517049789428711,
        8.3571195602417,
        6.5242600440979
      ],
      "min": [
        -6.522180080413818,
        0.000043000000005122274,
        -5.511340141296387
      ],
      "type": "VEC3"
    },
    {
      "bufferView": 22,
      "componentType": 5126,
      "count": 1014,
      "max": [
        1,
        1,
        1
      ],
      "min": [
        -1,
        -1,
        -1
      ],
      "type": "VEC3"
    },
    {
      "bufferView": 23,
      "componentType": 5126,
      "count": 1014,
      "max": [
        0.9773210287094116,
        0.9359509944915771
      ],
      "min": [
        0.058090001344680786,
        0.016450000926852226
      ],
      "type": "VEC2"
    },
    {
      "bufferView": 24,
      "componentType": 5126,
      "count": 6,
      "max": [
        10,
        0,
        10
      ],
      "min": [
        -10,
        0,
        -10
      ],
      "type": "VEC3"
    },
    {
      "bufferView": 25,
      "componentType": 5126,
      "count": 6,
      "max": [
        0,
        1,
        0
      ],
      "min": [
        0,
        1,
        0
      ],
      "type": "VEC3"
    },
    {
      "bufferView": 26,
      "componentType": 5126,
      "count": 6,
      "max": [
        0.9065409898757935,
        0.933908998966217
      ],
      "min": [
        0.8565499782562256,
        0.8839190006256104
      ],
      "type": "VEC2"
    }
  ],
  "materials": [
    {
      "pbrMetallicRoughness": {
        "metallicFactor": 0.5,
        "roughnessFactor": 0.5,
        "baseColorTexture": {
          "index": 0
        }
      },
      "name": "Natures"
    },
    {
      "pbrMetallicRoughness": {
        "metallicFactor": 0.5,
        "roughnessFactor": 0.5,
        "baseColorTexture": {
          "index": 1
        }
      },
      "name": "Building_Shoes Shop"
    },
    {
      "pbrMetallicRoughness": {
        "metallicFactor": 0.5,
        "roughnessFactor": 0.5,
        "baseColorTexture": {
          "index": 2
        }
      },
      "name": "Building_Fruits  Shop"
    },
    {
      "pbrMetallicRoughness": {
        "metallicFactor": 0.5,
        "roughnessFactor": 0.5,
        "baseColorTexture": {
          "index": 3
        }
      },
      "name": "Building_Clothing"
    },
    {
      "pbrMetallicRoughness": {
        "metallicFactor": 0.5,
        "roughnessFactor": 0.5,
        "baseColorTexture": {
          "index": 4
        }
      },
      "name": "Building_Books Shop"
    },
    {
      "pbrMetallicRoughness": {
        "metallicFactor": 0.5,
        "roughnessFactor": 0.5,
        "baseColorTexture": {
          "index": 5
        }
      },
      "name": "DefaultMaterial"
    }
  ],
  "textures": [
    {
      "sampler": 0,
      "source": 0
    },
    {
      "sampler": 1,
      "source": 1
    },
    {
      "sampler": 2,
      "source": 2
    },
    {
      "sampler": 3,
      "source": 3
    },
    {
      "sampler": 4,
      "source": 4
    },
    {
      "sampler": 5,
      "source": 5
    }
  ],
  "samplers": [
    {
      "magFilter": 9729,
      "minFilter": 9987
    },
    {
      "magFilter": 9729,
      "minFilter": 9987
    },
    {
      "magFilter": 9729,
      "minFilter": 9987
    },
    {
      "magFilter": 9729,
      "minFilter": 9987
    },
    {
      "magFilter": 9729,
      "minFilter": 9987
    },
    {
      "magFilter": 9729,
      "minFilter": 9987
    }
  ],
  "images": [
    {
      "mimeType": "image/png",
      "uri": "data:image/png;base64,"
    },
    {
      "mimeType": "image/png",
      "uri": "data:image/png;base64,"
    },
    {
      "mimeType": "image/png",
      "uri": "data:image/png;base64,"
    },
    {
      "mimeType": "image/png",
      "uri": "data:image/png;base64,"
    },
    {
      "mimeType": "image/png",
      "uri": "data:image/png;base64,"
    },
    {
      "mimeType": "image/png",
      "uri": "data:image/png;base64,"
    }
  ],
  "meshes": [
    {
      "primitives": [
        {
          "mode": 4,
          "attributes": {
            "POSITION": 0,
            "NORMAL": 1,
            "TEXCOORD_0": 2
          },
          "material": 0
        }
      ]
    },
    {
      "primitives": [
        {
          "mode": 4,
          "attributes": {
            "POSITION": 3,
            "NORMAL": 4,
            "TEXCOORD_0": 5
          },
          "material": 0
        }
      ]
    },
    {
      "primitives": [
        {
          "mode": 4,
          "attributes": {
            "POSITION": 6,
            "NORMAL": 7,
            "TEXCOORD_0": 8
          },
          "material": 0
        }
      ]
    },
    {
      "primitives": [
        {
          "mode": 4,
          "attributes": {
            "POSITION": 9,
            "NORMAL": 10,
            "TEXCOORD_0": 11
          },
          "material": 0
        }
      ]
    },
    {
      "primitives": [
        {
          "mode": 4,
          "attributes": {
            "POSITION": 12,
            "NORMAL": 13,
            "TEXCOORD_0": 14
          },
          "material": 1
        }
      ]
    },
    {
      "primitives": [
        {
          "mode": 4,
          "attributes": {
            "POSITION": 15,
            "NORMAL": 16,
            "TEXCOORD_0": 17
          },
          "material": 2
        }
      ]
    },
    {
      "primitives": [
        {
          "mode": 4,
          "attributes": {
            "POSITION": 18,
            "NORMAL": 19,
            "TEXCOORD_0": 20
          },
          "material": 3
        }
      ]
    },
    {
      "primitives": [
        {
          "mode": 4,
          "attributes": {
            "POSITION": 21,
            "NORMAL": 22,
            "TEXCOORD_0": 23
          },
          "material": 4
        }
      ]
    },
    {
      "primitives": [
        {
          "mode": 4,
          "attributes": {
            "POSITION": 24,
            "NORMAL": 25,
            "TEXCOORD_0": 26
          },
          "material": 5
        }
      ]
    }
  ]
}